<svg width="254" height="184" viewBox="0 0 254 184" fill="none" xmlns="http://www.w3.org/2000/svg">
<path d="M247.687 0.334961H6.02674C2.9245 0.334961 0.406738 2.85272 0.406738 5.95496V177.758C0.406738 180.861 2.9245 183.378 6.02674 183.378H247.687C250.789 183.378 253.307 180.861 253.307 177.758V5.95496C253.307 2.84991 250.789 0.334961 247.687 0.334961ZM36.2708 86.2367H11.6467V67.2692H36.2708V86.2367ZM36.2708 97.4767V116.444H11.6467V97.4767H36.2708ZM36.2708 56.0292H11.6467V37.0617H36.2708V56.0292ZM11.6467 127.684H36.2708V146.652H11.6467V127.684ZM47.5108 11.575H206.206V172.138H47.5108V11.575ZM217.443 97.4767H242.067V116.444H217.443V97.4767ZM217.443 86.2367V67.2692H242.067V86.2367H217.443ZM217.443 56.0292V37.0617H242.067V56.0292H217.443ZM217.443 127.684H242.067V146.652H217.443V127.684ZM242.067 25.8217H217.443V11.575H242.067V25.8217ZM36.2708 11.575V25.8217H11.6467V11.575H36.2708ZM11.6467 157.892H36.2708V172.138H11.6467V157.892ZM217.443 172.138V157.892H242.067V172.138H217.443Z" fill="white"/>
<path d="M96.6493 131.208C95.6658 131.208 94.6823 130.949 93.8056 130.435C92.0859 129.426 91.0293 127.58 91.0293 125.588V58.1255C91.0293 56.1332 92.0859 54.287 93.8056 53.2782C95.5225 52.2666 97.6468 52.2442 99.389 53.2192L159.804 86.9505C161.583 87.9424 162.684 89.8195 162.684 91.8567C162.684 93.894 161.58 95.7711 159.804 96.763L99.389 130.494C98.5376 130.969 97.5935 131.208 96.6493 131.208ZM102.269 67.6992V116.011L145.535 91.8567L102.269 67.6992Z" fill="white"/>
</svg>
