<svg width="800" height="800" viewBox="0 0 800 800" fill="none" xmlns="http://www.w3.org/2000/svg">
<g clip-path="url(#clip0_139_2)">
<path d="M388 174.333C384.631 171.527 380.742 169.412 376.556 168.11C372.369 166.809 367.966 166.346 363.601 166.749C359.235 167.151 354.991 168.411 351.113 170.456C347.235 172.501 343.798 175.291 341 178.667L174.333 378.667C169.43 384.631 166.75 392.112 166.75 399.833C166.75 407.554 169.43 415.035 174.333 421L335.333 621C338.47 624.867 342.434 627.983 346.933 630.117C351.433 632.251 356.353 633.35 361.333 633.333C367.641 633.355 373.825 631.586 379.168 628.232C384.51 624.879 388.792 620.078 391.515 614.389C394.237 608.699 395.29 602.353 394.55 596.089C393.809 589.824 391.307 583.899 387.333 579L243 400L392.333 221C397.898 214.217 400.564 205.513 399.752 196.776C398.941 188.04 394.718 179.976 388 174.333Z" fill="white"/>
<path d="M476.334 400L625.667 221C631.325 214.193 634.047 205.417 633.234 196.602C632.422 187.788 628.141 179.658 621.334 174C614.526 168.342 605.75 165.62 596.936 166.433C588.122 167.245 579.992 171.526 574.334 178.333L407.667 378.333C402.764 384.298 400.084 391.779 400.084 399.5C400.084 407.221 402.764 414.702 407.667 420.667L568.667 620.667C571.804 624.534 575.768 627.649 580.267 629.783C584.767 631.918 589.687 633.017 594.667 633C600.975 633.021 607.159 631.253 612.502 627.899C617.844 624.546 622.126 619.745 624.849 614.055C627.571 608.365 628.624 602.019 627.884 595.755C627.143 589.491 624.641 583.565 620.667 578.667L476.334 400Z" fill="white"/>
</g>
<defs>
<clipPath id="clip0_139_2">
<rect width="800" height="800" fill="white"/>
</clipPath>
</defs>
</svg>
